#!OML:ASF I:\Actors\actors\Patient Classification 1\Patient 1\Session 1\Subject1.ASF
:FULLY-SPECIFIED
:DEGREES
271
root 0.724264 17.5813 8.26135 8.54256 -2.87762 -10.4564
lowerback 3.20133 1.39916 10.7101
upperback -4.78853 2.54503 -0.463944
thorax -6.41435 0.715558 -6.71746
lowerneck -16.4119 -6.00815 -3.08003
upperneck 18.9701 -10.4482 12.5551
head 9.59812 -3.78206 3.43847
rclavicle 2.29658e-014 1.03368e-014
rhumerus -28.1973 33.1449 -112.993
rradius 119.548
rwrist 7.44105
rhand -12.6168 -45.8231
rfingers 7.12502
rthumb 13.4626 -75.368
lclavicle 2.29658e-014 1.03368e-014
lhumerus -51.0162 -44.5441 118.698
lradius 117.114
lwrist 13.8541
lhand -36.9853 -33.5795
lfingers 7.12502
lthumb -10.0604 -3.83997
rfemur -10.1603 20.2748 26.8887
rtibia 11.7246
rfoot -12.8076 -14.6519
rtoes -4.3872
lfemur 0.278849 -33.8629 -5.87015
ltibia -1.14244
lfoot -17.0293 44.3346
ltoes 4.09835
272
root 0.712232 17.5942 8.26761 8.92394 -3.08181 -9.38152
lowerback 2.7646 1.65432 9.32369
upperback -4.91937 2.74139 -0.742543
thorax -6.28648 0.877129 -6.23097
lowerneck -16.4871 -6.23655 -3.39299
upperneck 18.5356 -10.6678 12.7227
head 9.50807 -3.90484 3.50872
rclavicle -6.27608e-015 2.8625e-014
rhumerus -28.44 33.7928 -112.773
rradius 119.802
rwrist 7.65732
rhand -13.7339 -45.2199
rfingers 7.12502
rthumb 12.3857 -74.833
lclavicle -6.27608e-015 2.8625e-014
lhumerus -49.6534 -45.1422 117.521
lradius 117.405
lwrist 15.0226
lhand -36.0811 -32.6714
lfingers 7.12502
lthumb -9.18804 -2.89156
rfemur -10.7159 20.5373 25.4366
rtibia 11.7292
rfoot -12.8094 -14.8406
rtoes -4.16999
lfemur -0.3263 -34.0152 -6.82893
ltibia -0.932316
lfoot -17.2171 44.5402
ltoes 4.37368
273
root 0.707675 17.5988 8.27197 9.14564 -2.8842 -9.23849
lowerback 2.58838 1.80085 9.13221
upperback -5.0475 2.91161 -0.797195
thorax -6.29573 0.964994 -6.18738
lowerneck -16.4108 -6.44699 -3.75639
upperneck 18.0589 -10.8777 13.0386
head 9.38922 -4.01919 3.64305
rclavicle -1.62169e-014 1.43125e-014
rhumerus -29.804 34.8422 -113.453
rradius 120.357
rwrist 8.39793
rhand -14.8151 -44.2634
rfingers 7.12502
rthumb 11.3431 -73.9367
lclavicle -1.62169e-014 1.43125e-014
lhumerus -47.7624 -45.6406 115.848
lradius 117.724
lwrist 15.4027
lhand -35.3861 -31.6677
lfingers 7.12502
lthumb -8.51736 -1.85944
rfemur -10.891 20.5372 25.2126
rtibia 11.6153
rfoot -12.8133 -15.0143
rtoes -3.94216
lfemur -0.790235 -33.8669 -6.71324
ltibia -0.824069
lfoot -16.717 44.3009
ltoes 3.65336
274
root 0.711562 17.591 8.26923 9.20878 -2.42459 -10.2063
lowerback 2.81718 1.84579 10.3554
upperback -5.22237 3.09301 -0.608893
thorax -6.55861 0.976303 -6.70321
lowerneck -16.2831 -6.56042 -3.74125
upperneck 17.7036 -10.9828 13.0064
head 9.24953 -4.0914 3.61217
rclavicle 1.12344e-014 -4.77083e-015
rhumerus -32.0231 36.0176 -115.203
rradius 121.03
rwrist 9.49831
rhand -15.5957 -43.7593
rfingers 7.12502
rthumb 10.5901 -73.4724
lclavicle 1.12344e-014 -4.77083e-015
lhumerus -45.5809 -45.6247 113.806
lradius 118.013
lwrist 15.3983
lhand -37.2027 -32.52
lfingers 7.12502
lthumb -10.2702 -2.79075
rfemur -10.801 20.2417 26.3984
rtibia 11.51
rfoot -12.7851 -14.9881
rtoes -3.96437
lfemur -1.05389 -33.5019 -5.36091
ltibia -0.823949
lfoot -16.0882 43.7773
ltoes 2.71633
275
root 0.712634 17.5848 8.26389 9.65115 -2.24134 -10.4204
lowerback 2.63134 1.94719 10.6118
upperback -5.46697 3.24055 -0.559413
thorax -6.68359 1.02068 -6.8015
lowerneck -16.4443 -6.58112 -3.64981
upperneck 17.5967 -10.9733 12.8126
head 9.2228 -4.09801 3.52652
rclavicle 1.9015e-014 5.40694e-014
rhumerus -34.8233 37.2346 -117.673
rradius 121.598
rwrist 9.81759
rhand -16.0271 -42.9947
rfingers 7.12502
rthumb 10.174 -72.7287
lclavicle 1.9015e-014 5.40694e-014
lhumerus -43.1082 -44.843 111.607
lradius 118.273
lwrist 15.5049
lhand -38.09 -32.7456
lfingers 7.12502
lthumb -11.1261 -3.06051
rfemur -11.4473 19.9506 26.4379
rtibia 11.6432
rfoot -12.7585 -14.7969
rtoes -4.00492
lfemur -1.8708 -33.5397 -4.69065
ltibia -0.612781
lfoot -16.1859 43.782
ltoes 2.77117
276
root 0.685113 17.6028 8.28703 9.55457 -1.65304 -9.65639
lowerback 2.34443 1.81906 9.40404
upperback -5.41053 2.95903 -0.572458
thorax -6.54215 0.955966 -6.10248
lowerneck -16.7672 -6.53725 -3.56536
upperneck 17.5252 -10.8722 12.6029
head 9.22894 -4.05569 3.44694
rclavicle -1.81391e-014 4.92986e-014
rhumerus -37.7814 38.2772 -120.325
rradius 121.824
rwrist 9.6094
rhand -15.9442 -41.6546
rfingers 7.12502
rthumb 10.2539 -71.3847
lclavicle -1.81391e-014 4.92986e-014
lhumerus -40.9418 -43.7795 109.861
lradius 118.55
lwrist 15.8008
lhand -39.1019 -33.0687
lfingers 7.12502
lthumb -12.1019 -3.43873
rfemur -11.0492 20.3675 25.6938
rtibia 11.2281
rfoot -12.8743 -15.8427
rtoes -3.23907
lfemur -1.98071 -34.0998 -5.40091
ltibia -0.592244
lfoot -16.0135 43.7213
ltoes 2.44958
277
root 0.672818 17.6081 8.30181 9.41419 -1.09765 -9.38381
lowerback 2.25143 1.65377 8.95663
upperback -5.35216 2.70306 -0.49861
thorax -6.48392 0.86001 -5.75051
lowerneck -16.8905 -6.43997 -3.25657
upperneck 17.2801 -10.6987 12.2481
head 9.11053 -3.99614 3.2945
rclavicle -3.44146e-015 -1.27222e-014
rhumerus -39.8902 39.1067 -122.637
rradius 121.787
rwrist 8.86721
rhand -18.1973 -43.1571
rfingers 7.12502
rthumb 8.0799 -72.9826
lclavicle -3.44146e-015 -1.27222e-014
lhumerus -39.8674 -42.9378 109.04
lradius 118.803
lwrist 16.095
lhand -39.5101 -32.7034
lfingers 7.12502
lthumb -12.4955 -3.09701
rfemur -10.6967 20.4615 25.4901
rtibia 10.9773
rfoot -12.9148 -16.4499
rtoes -2.83363
lfemur -1.98932 -34.5279 -5.64702
ltibia -0.619109
lfoot -15.6731 43.6627
ltoes 1.96226
278
root 0.66981 17.6059 8.31025 9.24796 -0.619156 -9.43707
lowerback 2.27928 1.42661 9.04638
upperback -5.30206 2.40912 -0.409345
thorax -6.49642 0.713299 -5.68741
lowerneck -16.8958 -6.30404 -2.89467
upperneck 17.0321 -10.5098 11.9912
head 8.97419 -3.92127 3.17257
rclavicle 1.87541e-014 1.74931e-014
rhumerus -39.8283 38.7014 -123.058
rradius 121.739
rwrist 10.7886
rhand -16.8877 -43.0443
rfingers 7.12502
rthumb 9.34374 -72.8172
lclavicle 1.87541e-014 1.74931e-014
lhumerus -40.2663 -42.5555 109.271
lradius 118.874
lwrist 15.8184
lhand -39.6474 -33.5983
lfingers 7.12502
lthumb -12.6279 -4.00002
rfemur -10.3868 20.3924 25.6475
rtibia 10.8441
rfoot -12.9309 -16.8087
rtoes -2.77443
lfemur -1.86893 -34.9938 -5.61608
ltibia -0.725103
lfoot -15.3844 43.7377
ltoes 1.52226
279
root 0.670138 17.6024 8.31808 9.18388 -0.386291 -9.41905
lowerback 2.19107 1.23895 9.0693
upperback -5.27929 2.14974 -0.382983
thorax -6.46433 0.586773 -5.65181
lowerneck -16.8631 -6.14866 -2.57489
upperneck 16.9313 -10.3413 11.8999
head 8.89806 -3.83685 3.11331
rclavicle 1.94871e-014 -1.74931e-014
rhumerus -38.4291 37.8583 -122.129
rradius 121.747
rwrist 10.0511
rhand -14.8691 -43.2916
rfingers 7.12502
rthumb 11.291 -72.9677
lclavicle 1.94871e-014 -1.74931e-014
lhumerus -41.8246 -42.5302 110.431
lradius 118.702
lwrist 14.506
lhand -40.0524 -35.079
lfingers 7.12502
lthumb -13.0183 -5.50521
rfemur -10.2619 20.358 25.6553
rtibia 10.7923
rfoot -13.051 -17.013
rtoes -2.57234
lfemur -1.68038 -35.6607 -5.72423
ltibia -0.906823
lfoot -15.599 44.1432
ltoes 1.85272
280
root 0.679004 17.5936 8.31891 9.23448 -0.483674 -9.52811
lowerback 2.12453 1.17912 9.2749
upperback -5.33358 2.07634 -0.387759
thorax -6.49379 0.536204 -5.76673
lowerneck -16.7326 -6.01681 -2.36081
upperneck 16.9921 -10.2498 12.033
head 8.88652 -3.769 3.13998
rclavicle 2.29721e-014 -2.38542e-014
rhumerus -36.2609 37.1648 -120.493
rradius 121.62
rwrist 8.41982
rhand -13.1474 -43.8006
rfingers 7.12502
rthumb 12.9511 -73.3787
lclavicle 2.29721e-014 -2.38542e-014
lhumerus -43.962 -42.5859 112.18
lradius 118.437
lwrist 12.9669
lhand -40.9597 -35.7755
lfingers 7.12502
lthumb -13.8928 -6.25957
rfemur -10.4187 20.2191 25.7119
rtibia 10.932
rfoot -13.1175 -16.8019
rtoes -2.49294
lfemur -1.52849 -36.1423 -5.71613
ltibia -1.05016
lfoot -16.1437 44.6447
ltoes 2.66936
281
root 0.703524 17.5728 8.3067 9.38377 -0.801845 -10.1073
lowerback 2.2167 1.23428 10.2429
upperback -5.46944 2.22202 -0.403713
thorax -6.65569 0.542879 -6.34458
lowerneck -16.6845 -5.99628 -2.18335
upperneck 17.2655 -10.35 12.2322
head 8.98486 -3.773 3.16817
rclavicle -2.45499e-014 1.27222e-014
rhumerus -33.5223 36.0804 -118.429
rradius 121.398
rwrist 6.8129
rhand -11.8883 -44.1579
rfingers 7.12502
rthumb 14.1646 -73.655
lclavicle -2.45499e-014 1.27222e-014
lhumerus -46.2578 -42.8381 114.207
lradius 118.052
lwrist 12.4729
lhand -41.2751 -35.7623
lfingers 7.12502
lthumb -14.1967 -6.26739
rfemur -10.866 19.8068 26.2211
rtibia 11.3348
rfoot -13.059 -16.0368
rtoes -3.0396
lfemur -1.50181 -36.1844 -5.15995
ltibia -1.12856
lfoot -16.5975 45.0044
ltoes 3.3436
282
root 0.713823 17.5658 8.30726 8.48094 -0.898451 -11.2759
lowerback 3.21136 1.16224 11.7174
upperback -5.28749 2.34324 -0.249679
thorax -6.99892 0.513414 -7.05189
lowerneck -16.7538 -6.17183 -2.18657
upperneck 17.6473 -10.7028 12.4532
head 9.17399 -3.89404 3.19587
rclavicle 9.16894e-015 2.22639e-014
rhumerus -31.0359 34.4731 -116.38
rradius 120.983
rwrist 6.36656
rhand -11.426 -44.2625
rfingers 7.12502
rthumb 14.6101 -73.7279
lclavicle 9.16894e-015 2.22639e-014
lhumerus -48.6129 -43.6806 116.52
lradius 117.396
lwrist 12.5859
lhand -40.7716 -35.9539
lfingers 7.12502
lthumb -13.7115 -6.42564
rfemur -9.60375 19.7383 28.0467
rtibia 11.2669
rfoot -13.0292 -15.7911
rtoes -3.50099
lfemur 0.171156 -35.8379 -4.70413
ltibia -1.61857
lfoot -16.4018 44.7441
ltoes 3.10144
